<svg xmlns="http://www.w3.org/2000/svg" xmlns:xlink="http://www.w3.org/1999/xlink" xml:space="preserve" version="1.1" style="shape-rendering:geometricPrecision;text-rendering:geometricPrecision;image-rendering:optimizeQuality;" viewBox="0 0 252 361.25" x="0px" y="0px" fill-rule="evenodd" clip-rule="evenodd"><defs><style type="text/css">
   
    .fil0 {fill:black}
   
  </style></defs><g><path class="fil0" d="M252 74l-31 0 0 121 -39 -22 -39 -23 0 41 -32 -18c-13,-8 -27,-15 -40,-23l0 41 -32 -18 -39 -23 0 45 0 46 0 -1 0 49 221 0 31 0 0 -215zm-194 148l-27 0 0 26 27 0 0 -26zm109 0c-9,0 -18,0 -27,0 0,9 0,18 0,26 9,0 18,0 27,0 0,-8 0,-17 0,-26zm-55 0c-9,0 -17,0 -26,0 0,9 0,18 0,26 9,0 17,0 26,0 0,-8 0,-17 0,-26zm109 0l-26 0 0 26 26 0 0 -26z"/><path class="fil0" d="M162 25c-8,3 -15,5 -15,11 0,6 6,12 12,12 7,0 7,-4 12,-1 17,9 22,0 31,3 11,3 14,9 33,10 12,0 25,-34 -16,-37 -1,0 -5,-26 -23,-23 -9,2 -8,9 -13,14 -2,4 -7,0 -8,-1 -10,-3 -9,11 -13,12z"/></g><text x="0" y="304" fill="#000000" font-size="5px" font-weight="bold" font-family="'Helvetica Neue', Helvetica, Arial-Unicode, Arial, Sans-serif">Created by Chrystina Angeline</text><text x="0" y="309" fill="#000000" font-size="5px" font-weight="bold" font-family="'Helvetica Neue', Helvetica, Arial-Unicode, Arial, Sans-serif">from the Noun Project</text></svg>