<?xml version="1.0" encoding="UTF-8" standalone="no"?>
<svg
   xmlns:dc="http://purl.org/dc/elements/1.1/"
   xmlns:cc="http://creativecommons.org/ns#"
   xmlns:rdf="http://www.w3.org/1999/02/22-rdf-syntax-ns#"
   xmlns:svg="http://www.w3.org/2000/svg"
   xmlns="http://www.w3.org/2000/svg"
   xmlns:sodipodi="http://sodipodi.sourceforge.net/DTD/sodipodi-0.dtd"
   xmlns:inkscape="http://www.inkscape.org/namespaces/inkscape"
   xml:space="preserve"
   version="1.1"
   style="shape-rendering:geometricPrecision;text-rendering:geometricPrecision;image-rendering:optimizeQuality;"
   viewBox="0 0 252 361.25"
   x="0px"
   y="0px"
   fill-rule="evenodd"
   clip-rule="evenodd"
   id="svg3394"
   inkscape:version="0.91 r13725"
   sodipodi:docname="object-factory-with-prototype.svg"><metadata
     id="metadata3412"><rdf:RDF><cc:Work
         rdf:about=""><dc:format>image/svg+xml</dc:format><dc:type
           rdf:resource="http://purl.org/dc/dcmitype/StillImage" /><dc:title></dc:title></cc:Work></rdf:RDF></metadata><sodipodi:namedview
     pagecolor="#ffffff"
     bordercolor="#666666"
     borderopacity="1"
     objecttolerance="10"
     gridtolerance="10"
     guidetolerance="10"
     inkscape:pageopacity="0"
     inkscape:pageshadow="2"
     inkscape:window-width="923"
     inkscape:window-height="679"
     id="namedview3410"
     showgrid="false"
     inkscape:zoom="1.3619377"
     inkscape:cx="19.534045"
     inkscape:cy="180.625"
     inkscape:window-x="0"
     inkscape:window-y="0"
     inkscape:window-maximized="0"
     inkscape:current-layer="svg3394" /><defs
     id="defs3396"><marker
       inkscape:stockid="Arrow2Lend"
       orient="auto"
       refY="0.0"
       refX="0.0"
       id="Arrow2Lend"
       style="overflow:visible;"
       inkscape:isstock="true"><path
         id="path4267"
         style="fill-rule:evenodd;stroke-width:0.625;stroke-linejoin:round;stroke:#14cbf5;stroke-opacity:1;fill:#14cbf5;fill-opacity:1"
         d="M 8.7185878,4.0337352 L -2.2072895,0.016013256 L 8.7185884,-4.0017078 C 6.9730900,-1.6296469 6.9831476,1.6157441 8.7185878,4.0337352 z "
         transform="scale(1.1) rotate(180) translate(1,0)" /></marker><style
       type="text/css"
       id="style3398">
   
    .fil0 {fill:black}
   
  </style></defs><g
     id="g3400"
     transform="matrix(0.10258582,0,0,0.09120498,129.22764,99.638711)"><path
       class="fil0"
       d="m 252,74 -31,0 0,121 -39,-22 -39,-23 0,41 -32,-18 C 98,165 84,158 71,150 l 0,41 -32,-18 -39,-23 0,45 0,46 0,-1 0,49 221,0 31,0 0,-215 z m -194,148 -27,0 0,26 27,0 0,-26 z m 109,0 c -9,0 -18,0 -27,0 0,9 0,18 0,26 9,0 18,0 27,0 0,-8 0,-17 0,-26 z m -55,0 c -9,0 -17,0 -26,0 0,9 0,18 0,26 9,0 17,0 26,0 0,-8 0,-17 0,-26 z m 109,0 -26,0 0,26 26,0 0,-26 z"
       id="path3402"
       inkscape:connector-curvature="0"
       style="fill:#000000" /><path
       class="fil0"
       d="m 162,25 c -8,3 -15,5 -15,11 0,6 6,12 12,12 7,0 7,-4 12,-1 17,9 22,0 31,3 11,3 14,9 33,10 12,0 25,-34 -16,-37 -1,0 -5,-26 -23,-23 -9,2 -8,9 -13,14 -2,4 -7,0 -8,-1 -10,-3 -9,11 -13,12 z"
       id="path3404"
       inkscape:connector-curvature="0"
       style="fill:#000000" /></g><text
     x="0"
     y="304"
     fill="#000000"
     font-size="5px"
     font-weight="bold"
     font-family="'Helvetica Neue', Helvetica, Arial-Unicode, Arial, Sans-serif"
     id="text3406">Created by Chrystina Angeline</text>
<text
     x="0"
     y="309"
     fill="#000000"
     font-size="5px"
     font-weight="bold"
     font-family="'Helvetica Neue', Helvetica, Arial-Unicode, Arial, Sans-serif"
     id="text3408">from the Noun Project</text>
<ellipse
     style="fill:none;fill-rule:evenodd;stroke:#dc54ca;stroke-width:2;stroke-linecap:butt;stroke-linejoin:miter;stroke-opacity:1;stroke-miterlimit:4;stroke-dasharray:none"
     id="path3414"
     cx="186.8661"
     cy="136.203"
     rx="15.052083"
     ry="8.4438515" /><circle
     style="fill:none;stroke:#14cbf5;stroke-width:1;stroke-miterlimit:4;stroke-dasharray:none;stroke-opacity:1"
     id="path4216"
     cx="114.54269"
     cy="164.47154"
     r="5.8739839"
     inkscape:transform-center-x="-1.4684959"
     inkscape:transform-center-y="28.635671" /><circle
     style="fill:none;stroke:#14cbf5;stroke-width:1;stroke-miterlimit:4;stroke-dasharray:none;stroke-opacity:1"
     id="use4230"
     cx="96.186485"
     cy="164.47154"
     r="5.8739839" /><circle
     style="fill:none;stroke:#14cbf5;stroke-width:1;stroke-miterlimit:4;stroke-dasharray:none;stroke-opacity:1;marker-end:"
     id="use4232"
     cx="146.84959"
     cy="163.73729"
     r="5.8739839" /></svg>