<?xml version="1.0" encoding="UTF-8" standalone="no"?>
<svg
   xmlns:dc="http://purl.org/dc/elements/1.1/"
   xmlns:cc="http://creativecommons.org/ns#"
   xmlns:rdf="http://www.w3.org/1999/02/22-rdf-syntax-ns#"
   xmlns:svg="http://www.w3.org/2000/svg"
   xmlns="http://www.w3.org/2000/svg"
   xmlns:sodipodi="http://sodipodi.sourceforge.net/DTD/sodipodi-0.dtd"
   xmlns:inkscape="http://www.inkscape.org/namespaces/inkscape"
   xml:space="preserve"
   version="1.1"
   style="clip-rule:evenodd;fill-rule:evenodd;image-rendering:optimizeQuality;shape-rendering:geometricPrecision;text-rendering:geometricPrecision"
   viewBox="0 0 118 82"
   x="0px"
   y="0px"
   id="svg3394"
   inkscape:version="0.91 r13725"
   sodipodi:docname="object-factory-with-prototype.svg"
   width="118"
   height="82"><metadata
     id="metadata3412"><rdf:RDF><cc:Work
         rdf:about=""><dc:format>image/svg+xml</dc:format><dc:type
           rdf:resource="http://purl.org/dc/dcmitype/StillImage" /><dc:title></dc:title></cc:Work></rdf:RDF></metadata><sodipodi:namedview
     pagecolor="#ffffff"
     bordercolor="#666666"
     borderopacity="1"
     objecttolerance="10"
     gridtolerance="10"
     guidetolerance="10"
     inkscape:pageopacity="0"
     inkscape:pageshadow="2"
     inkscape:window-width="1389"
     inkscape:window-height="768"
     id="namedview3410"
     showgrid="false"
     inkscape:zoom="1"
     inkscape:cx="41.262816"
     inkscape:cy="26.041336"
     inkscape:window-x="0"
     inkscape:window-y="0"
     inkscape:window-maximized="0"
     inkscape:current-layer="svg3394"
     fit-margin-top="0"
     fit-margin-left="0"
     fit-margin-right="0"
     fit-margin-bottom="0" /><defs
     id="defs3396"><style
       type="text/css"
       id="style3398">
   
    .fil0 {fill:black}
   
  </style></defs><g
     id="g3400"
     transform="matrix(0.10258582,0,0,0.09120498,42.72764,4.888711)"><path
       class="fil0"
       d="m 252,74 -31,0 0,121 -39,-22 -39,-23 0,41 -32,-18 C 98,165 84,158 71,150 l 0,41 -32,-18 -39,-23 0,45 0,46 0,-1 0,49 221,0 31,0 0,-215 z m -194,148 -27,0 0,26 27,0 0,-26 z m 109,0 c -9,0 -18,0 -27,0 0,9 0,18 0,26 9,0 18,0 27,0 0,-8 0,-17 0,-26 z m -55,0 c -9,0 -17,0 -26,0 0,9 0,18 0,26 9,0 17,0 26,0 0,-8 0,-17 0,-26 z m 109,0 -26,0 0,26 26,0 0,-26 z"
       id="path3402"
       inkscape:connector-curvature="0"
       style="fill:#000000" /><path
       class="fil0"
       d="m 162,25 c -8,3 -15,5 -15,11 0,6 6,12 12,12 7,0 7,-4 12,-1 17,9 22,0 31,3 11,3 14,9 33,10 12,0 25,-34 -16,-37 -1,0 -5,-26 -23,-23 -9,2 -8,9 -13,14 -2,4 -7,0 -8,-1 -10,-3 -9,11 -13,12 z"
       id="path3404"
       inkscape:connector-curvature="0"
       style="fill:#000000" /></g><ellipse
     style="fill:none;fill-rule:evenodd;stroke:#dc54ca;stroke-width:2;stroke-linecap:butt;stroke-linejoin:miter;stroke-miterlimit:4;stroke-dasharray:none;stroke-opacity:1"
     id="path3414"
     cx="100.3661"
     cy="41.453003"
     rx="15.052083"
     ry="8.4438515" /><circle
     style="fill:none;stroke:#14cbf5;stroke-width:1;stroke-miterlimit:4;stroke-dasharray:none;stroke-opacity:1"
     id="path4216"
     cx="28.042686"
     cy="69.721542"
     r="5.8739839"
     inkscape:transform-center-x="-1.4684959"
     inkscape:transform-center-y="28.635671" /><circle
     style="fill:none;stroke:#14cbf5;stroke-width:1;stroke-miterlimit:4;stroke-dasharray:none;stroke-opacity:1"
     id="use4230"
     cx="9.6864853"
     cy="69.721542"
     r="5.8739839" /><circle
     style="fill:none;stroke:#14cbf5;stroke-width:1;stroke-miterlimit:4;stroke-dasharray:none;stroke-opacity:1"
     id="use4232"
     cx="60.349594"
     cy="68.987289"
     r="5.8739839" /><path
     style="fill:none;fill-rule:evenodd;stroke:#000000;stroke-width:1px;stroke-linecap:butt;stroke-linejoin:miter;stroke-opacity:1"
     d="M 40.70846,33.92695 13.174163,62.37906"
     id="path4206"
     inkscape:connector-curvature="0" /><path
     style="fill:none;fill-rule:evenodd;stroke:#000000;stroke-width:1px;stroke-linecap:butt;stroke-linejoin:miter;stroke-opacity:1"
     d="M 44.01258,34.11052 30.79611,62.1955"
     id="path4661"
     inkscape:connector-curvature="0" /><path
     style="fill:none;fill-rule:evenodd;stroke:#000000;stroke-width:1px;stroke-linecap:butt;stroke-linejoin:miter;stroke-opacity:1"
     d="M 53.92493,34.29408 58.8811,60.727"
     id="path4663"
     inkscape:connector-curvature="0" /><path
     style="fill:none;fill-rule:evenodd;stroke:#14cbf5;stroke-width:1px;stroke-linecap:butt;stroke-linejoin:miter;stroke-opacity:1"
     d="M 15.00978,64.76537 83.66197,45.12423"
     id="path4665"
     inkscape:connector-curvature="0" /><path
     style="fill:none;fill-rule:evenodd;stroke:#14cbf5;stroke-width:1px;stroke-linecap:butt;stroke-linejoin:miter;stroke-opacity:1"
     d="M 32.63173,64.76537 85.49759,47.51054"
     id="path4685"
     inkscape:connector-curvature="0" /><path
     style="fill:none;fill-rule:evenodd;stroke:#14cbf5;stroke-width:1px;stroke-linecap:butt;stroke-linejoin:miter;stroke-opacity:1"
     d="M 65.12221,64.39824 88.98527,49.52972"
     id="path4687"
     inkscape:connector-curvature="0" /></svg>