<?xml version="1.0" encoding="UTF-8" standalone="no"?>
<svg
   xmlns:dc="http://purl.org/dc/elements/1.1/"
   xmlns:cc="http://creativecommons.org/ns#"
   xmlns:rdf="http://www.w3.org/1999/02/22-rdf-syntax-ns#"
   xmlns:svg="http://www.w3.org/2000/svg"
   xmlns="http://www.w3.org/2000/svg"
   xmlns:sodipodi="http://sodipodi.sourceforge.net/DTD/sodipodi-0.dtd"
   xmlns:inkscape="http://www.inkscape.org/namespaces/inkscape"
   xml:space="preserve"
   version="1.1"
   style="clip-rule:evenodd;fill-rule:evenodd;image-rendering:optimizeQuality;shape-rendering:geometricPrecision;text-rendering:geometricPrecision"
   viewBox="0 0 452.4227 284.91516"
   x="0px"
   y="0px"
   id="svg3394"
   inkscape:version="0.91 r13725"
   sodipodi:docname="object-factory-with-prototype-x4.svg"
   width="452.4227"
   height="284.91516"><metadata
     id="metadata3412"><rdf:RDF><cc:Work
         rdf:about=""><dc:format>image/svg+xml</dc:format><dc:type
           rdf:resource="http://purl.org/dc/dcmitype/StillImage" /><dc:title></dc:title></cc:Work></rdf:RDF></metadata><sodipodi:namedview
     pagecolor="#ffffff"
     bordercolor="#666666"
     borderopacity="1"
     objecttolerance="10"
     gridtolerance="10"
     guidetolerance="10"
     inkscape:pageopacity="0"
     inkscape:pageshadow="2"
     inkscape:window-width="1389"
     inkscape:window-height="768"
     id="namedview3410"
     showgrid="false"
     inkscape:zoom="0.5"
     inkscape:cx="196.10883"
     inkscape:cy="126.98005"
     inkscape:window-x="0"
     inkscape:window-y="0"
     inkscape:window-maximized="0"
     inkscape:current-layer="svg3394"
     fit-margin-top="0"
     fit-margin-left="0"
     fit-margin-right="0"
     fit-margin-bottom="0" /><defs
     id="defs3396"><style
       type="text/css"
       id="style3398">
   
    .fil0 {fill:black}
   
  </style></defs><g
     id="g3400"
     transform="matrix(0.41034328,0,0,0.36481992,157.66056,0.08791859)"><path
       class="fil0"
       d="m 252,74 -31,0 0,121 -39,-22 -39,-23 0,41 -32,-18 C 98,165 84,158 71,150 l 0,41 -32,-18 -39,-23 0,45 0,46 0,-1 0,49 221,0 31,0 0,-215 z m -194,148 -27,0 0,26 27,0 0,-26 z m 109,0 c -9,0 -18,0 -27,0 0,9 0,18 0,26 9,0 18,0 27,0 0,-8 0,-17 0,-26 z m -55,0 c -9,0 -17,0 -26,0 0,9 0,18 0,26 9,0 17,0 26,0 0,-8 0,-17 0,-26 z m 109,0 -26,0 0,26 26,0 0,-26 z"
       id="path3402"
       inkscape:connector-curvature="0"
       style="fill:#000000" /><path
       class="fil0"
       d="m 162,25 c -8,3 -15,5 -15,11 0,6 6,12 12,12 7,0 7,-4 12,-1 17,9 22,0 31,3 11,3 14,9 33,10 12,0 25,-34 -16,-37 -1,0 -5,-26 -23,-23 -9,2 -8,9 -13,14 -2,4 -7,0 -8,-1 -10,-3 -9,11 -13,12 z"
       id="path3404"
       inkscape:connector-curvature="0"
       style="fill:#000000" /></g><ellipse
     style="fill:none;fill-rule:evenodd;stroke:#dc54ca;stroke-width:8;stroke-linecap:butt;stroke-linejoin:miter;stroke-miterlimit:4;stroke-dasharray:none;stroke-opacity:1"
     id="path3414"
     cx="388.21439"
     cy="146.34508"
     rx="60.208332"
     ry="33.775406" /><circle
     style="fill:none;stroke:#14cbf5;stroke-width:4;stroke-miterlimit:4;stroke-dasharray:none;stroke-opacity:1"
     id="path4216"
     cx="98.920738"
     cy="259.41925"
     r="23.495935"
     inkscape:transform-center-x="-5.8739807"
     inkscape:transform-center-y="114.54268" /><circle
     style="fill:none;stroke:#14cbf5;stroke-width:4;stroke-miterlimit:4;stroke-dasharray:none;stroke-opacity:1"
     id="use4230"
     cx="25.495935"
     cy="259.41925"
     r="23.495935" /><circle
     style="fill:none;stroke:#14cbf5;stroke-width:4;stroke-miterlimit:4;stroke-dasharray:none;stroke-opacity:1"
     id="use4232"
     cx="228.14838"
     cy="256.48224"
     r="23.495935" /><path
     style="fill:none;fill-rule:evenodd;stroke:#000000;stroke-width:4px;stroke-linecap:butt;stroke-linejoin:miter;stroke-opacity:1"
     d="M 149.58384,116.24087 39.446648,230.04932"
     id="path4206"
     inkscape:connector-curvature="0" /><path
     style="fill:none;fill-rule:evenodd;stroke:#000000;stroke-width:4px;stroke-linecap:butt;stroke-linejoin:miter;stroke-opacity:1"
     d="M 162.80032,116.97515 109.93444,229.31508"
     id="path4661"
     inkscape:connector-curvature="0" /><path
     style="fill:none;fill-rule:evenodd;stroke:#000000;stroke-width:4px;stroke-linecap:butt;stroke-linejoin:miter;stroke-opacity:1"
     d="M 202.44972,117.70939 222.2744,223.44108"
     id="path4663"
     inkscape:connector-curvature="0" /><path
     style="fill:none;fill-rule:evenodd;stroke:#14cbf5;stroke-width:4px;stroke-linecap:butt;stroke-linejoin:miter;stroke-opacity:1"
     d="M 46.789118,239.59456 321.39788,161.02999"
     id="path4665"
     inkscape:connector-curvature="0" /><path
     style="fill:none;fill-rule:evenodd;stroke:#14cbf5;stroke-width:4px;stroke-linecap:butt;stroke-linejoin:miter;stroke-opacity:1"
     d="M 117.27692,239.59456 328.74036,170.57523"
     id="path4685"
     inkscape:connector-curvature="0" /><path
     style="fill:none;fill-rule:evenodd;stroke:#14cbf5;stroke-width:4px;stroke-linecap:butt;stroke-linejoin:miter;stroke-opacity:1"
     d="m 247.23884,238.12604 95.45224,-59.47409"
     id="path4687"
     inkscape:connector-curvature="0" /></svg>